
g
v -6.326744 0.578746 0.216735
v -6.486472 1.060669 0.810185
v -7.147277 1.450283 0.956756
v -7.811561 1.454201 0.546075
v -7.979103 1.069473 -0.112606
v -7.523741 0.585806 -0.523286
v -6.788372 0.367412 -0.376716
v -6.509617 -0.292528 0.725241
v -6.678581 0.129516 1.360281
v -7.369042 0.418254 1.583531
v -8.061069 0.356259 1.226879
v -8.233553 -0.009785 0.558891
v -7.756608 -0.404239 0.082576
v -6.989384 -0.530072 0.156609
v -6.507800 -1.202034 1.138930
v -6.674216 -0.868787 1.825370
v -7.374521 -0.712031 2.133504
v -8.081372 -0.849806 1.831302
v -8.262495 -1.178365 1.146327
v -7.781502 -1.450296 0.594381
v -7.000589 -1.460830 0.591089
v -6.300037 -2.104475 1.409459
v -6.438950 -1.886525 2.146444
v -7.114132 -1.898655 2.538782
v -7.817157 -2.131729 2.291034
v -8.018632 -2.410239 1.589760
v -7.566844 -2.524461 0.963032
v -6.801997 -2.388383 0.882791
v -5.883537 -2.928059 1.499868
v -5.958185 -2.840504 2.272337
v -6.553558 -3.052562 2.731149
v -7.221327 -3.404550 2.530810
v -7.458649 -3.631412 1.822179
v -7.086815 -3.562318 1.138869
v -6.385824 -3.249296 0.995427
v -5.287462 -3.580707 1.392801
v -5.255845 -3.618234 2.172248
v -5.699606 -4.039160 2.657886
v -6.284583 -4.526519 2.484019
v -6.570277 -4.713320 1.781572
v -6.341553 -4.458898 1.079503
v -5.770647 -3.954838 0.906483
v -4.579535 -3.971358 1.100184
v -4.405969 -4.102352 1.850292
v -4.622602 -4.700826 2.302891
v -5.066304 -5.316115 2.117166
v -5.402959 -5.484895 1.432971
v -5.379059 -5.080071 0.765518
v -5.012601 -4.406483 0.617414
v -3.851506 -4.043425 0.664373
v -3.521879 -4.212280 1.351963
v -3.460586 -4.906076 1.705285
v -3.713782 -5.602371 1.458280
v -4.090805 -5.776841 0.796948
v -4.307749 -5.298105 0.219285
v -4.201251 -4.526663 0.160284
v -3.176072 -3.789749 0.146401
v -2.713649 -3.935648 0.758631
v -2.383523 -4.611315 0.969432
v -2.434287 -5.307960 0.620068
v -2.827714 -5.500995 -0.026383
v -3.267545 -5.045060 -0.483131
v -3.422579 -4.283484 -0.406235
v -2.585691 -3.219300 -0.322818
v -2.061469 -3.326486 0.246084
v -1.530608 -3.894741 0.318325
v -1.392856 -4.496158 -0.160495
v -1.751943 -4.677858 -0.829814
v -2.337470 -4.303016 -1.185621
v -2.708523 -3.653897 -0.959987
v -2.060501 -2.393148 -0.504725
v -1.565366 -2.553570 0.077557
v -0.921039 -2.994619 0.061264
v -0.612711 -3.384175 -0.541336
v -0.872559 -3.428895 -1.276472
v -1.504913 -3.095104 -1.590572
v -2.033597 -2.634154 -1.247113
v -1.552110 -1.466938 -0.254743
v -1.143611 -1.805794 0.318189
v -0.456462 -2.174340 0.274052
v -0.008102 -2.295052 -0.353919
v -0.136153 -2.077033 -1.092849
v -0.744192 -1.684455 -1.386308
v -1.374352 -1.412937 -1.013316
v -0.995331 -0.524324 0.298821
v -0.671215 -1.013156 0.814513
v 0.012086 -1.388355 0.766844
v 0.540032 -1.367387 0.191710
v 0.515070 -0.966042 -0.477802
v -0.044005 -0.486541 -0.737535
v -0.716196 -0.289958 -0.391905
v -0.305545 0.489392 0.817119
v 0.011750 0.000926 1.337380
v 0.668299 -0.417425 1.275151
v 1.169706 -0.450635 0.677293
v 1.138402 -0.073696 -0.005995
v 0.597959 0.429550 -0.260184
v -0.044658 0.680148 0.106137
v 0.499517 1.575022 0.936380
v 0.922870 1.219657 1.488136
v 1.550448 0.762910 1.401679
v 1.909673 0.548722 0.742113
v 1.730041 0.738380 0.006104
v 1.146818 1.189068 -0.252117
v 0.599184 1.561408 0.161894
v 1.247676 2.605645 0.522318
v 1.813778 2.424541 1.028951
v 2.421741 1.944665 0.928719
v 2.613757 1.527373 0.297099
v 2.245234 1.486894 -0.390286
v 1.593677 1.853710 -0.615822
v 1.149722 2.351601 -0.209675
v 1.753852 3.492067 -0.224971
v 2.417397 3.461822 0.185810
v 3.041877 3.007486 0.069407
v 3.157046 2.471182 -0.486526
v 2.676180 2.256759 -1.063360
v 1.961380 2.525681 -1.226727
v 1.550906 3.075445 -0.853609
v 1.979369 4.314019 -0.947528
v 2.679676 4.392657 -0.610878
v 3.350165 4.035789 -0.792637
v 3.485944 3.512144 -1.355937
v 2.984769 3.216038 -1.876601
v 2.224035 3.370444 -1.962559
v 1.776590 3.859091 -1.549082
v 1.971498 5.164972 -1.426555
v 2.676632 5.316447 -1.126909
v 3.378290 5.129335 -1.414332
v 3.548109 4.744535 -2.072387
v 3.058212 4.451809 -2.605546
v 2.277501 4.471586 -2.612329
v 1.793868 4.788973 -2.087629
v 1.750419 6.015920 -1.617657
v 2.444824 6.236801 -1.336658
v 3.128996 6.283128 -1.710434
v 3.287740 6.120017 -2.457523
v 2.801519 5.870293 -3.015352
v 2.036466 5.722004 -2.963864
v 1.568682 5.786814 -2.341831
v 1.333469 6.773876 -1.540780
v 1.995194 7.076286 -1.256852
v 2.597403 7.383349 -1.648007
v 2.686621 7.463840 -2.419699
v 2.195665 7.257148 -2.990827
v 1.494235 6.918916 -2.931320
v 1.110522 6.703840 -2.285989
v 0.763443 7.339645 -1.236830
v 1.366108 7.721084 -0.918638
v 1.824287 8.264340 -1.242507
v 1.792962 8.560331 -1.964556
v 1.295721 8.386169 -2.541067
v 0.706997 7.873002 -2.537917
v 0.470111 7.407255 -1.957476
v 0.107572 7.631432 -0.769018
v 0.629788 8.067173 -0.385133
v 0.898784 8.777533 -0.566727
v 0.712001 9.227596 -1.177056
v 0.210091 9.078456 -1.756529
v -0.228998 8.442419 -1.868792
v -0.274624 7.798432 -1.429308
v -0.552431 7.601554 -0.223761
v -0.121581 8.049514 0.249152
v -0.062235 8.828146 0.261692
v -0.419081 9.351123 -0.195585
v -0.923407 9.224634 -0.778339
v -1.195445 8.543927 -1.047745
v -1.030345 7.821588 -0.800934
v -1.132461 7.248020 0.296947
v -0.790852 7.655330 0.869091
v -0.933750 8.388480 1.097165
v -1.453550 8.895393 0.809426
v -1.958832 8.794353 0.222546
v -2.069108 8.161445 -0.221542
v -1.701338 7.473262 -0.188430
v -1.560904 6.620013 0.689461
v -1.291914 6.930054 1.353890
v -1.600922 7.504605 1.783252
v -2.255237 7.911018 1.654229
v -2.762148 7.843254 1.063978
v -2.739939 7.352343 0.456969
v -2.205335 6.807949 0.290294
v -1.793434 5.812843 0.864638
v -1.566229 5.973692 1.594332
v -1.979853 6.295584 2.173338
v -2.722838 6.536126 2.165653
v -3.235701 6.514187 1.577065
v -3.132247 6.246286 0.850792
v -2.490377 5.934159 0.533732
v -1.823649 4.951059 0.765489
v -1.596104 4.927241 1.512217
v -2.037366 4.942041 2.156434
v -2.815155 4.984313 2.213032
v -3.343781 5.022226 1.639391
v -3.225177 5.027230 0.867474
v -2.548654 4.995558 0.478552
v -1.682257 4.156710 0.381995
v -1.410262 3.945383 1.082927
v -1.805291 3.657129 1.691867
v -2.569880 3.509011 1.750271
v -3.128278 3.612563 1.214160
v -3.059999 3.889810 0.487235
v -2.416459 4.131978 0.116887
v -1.407283 3.505386 -0.243055
v -1.064260 3.151572 0.362831
v -1.367239 2.626887 0.855635
v -2.088070 2.326430 0.864267
v -2.683953 2.476451 0.382225
v -2.706176 2.963980 -0.227502
v -2.138004 3.421899 -0.505778
v -0.980425 2.971870 -1.019114
v -0.584828 2.562053 -0.484792
v -0.798693 1.907078 -0.117074
v -1.460975 1.500156 -0.192859
v -2.072962 1.647706 -0.655079
v -2.173815 2.238620 -1.155674
v -1.687590 2.827929 -1.317685
v -0.309804 2.432664 -1.799311
v 0.058294 2.055532 -1.222925
v -0.121534 1.368605 -0.897747
v -0.713875 0.889154 -1.068644
v -1.272683 0.978215 -1.606927
v -1.377165 1.568723 -2.107257
v -0.948643 2.216014 -2.192876
v 0.648238 1.782572 -2.342263
v 0.863509 1.517659 -1.639820
v 0.631056 0.869263 -1.271723
v 0.125921 0.325641 -1.515156
v -0.271518 0.296149 -2.186810
v -0.261983 0.802997 -2.780915
v 0.147347 1.464517 -2.850098
v 1.770753 1.042038 -2.397132
v 1.731331 0.951080 -1.622458
v 1.372461 0.389136 -1.215790
v 0.964380 -0.220638 -1.483357
v 0.814381 -0.419070 -2.223675
v 1.035416 -0.056737 -2.879270
v 1.461042 0.593517 -2.956466
v 2.828730 0.312758 -1.892093
v 2.526360 0.408462 -1.178398
v 2.017661 -0.047524 -0.799917
v 1.685694 -0.711835 -1.041653
v 1.780436 -1.084229 -1.721574
v 2.230545 -0.884287 -2.327686
v 2.697080 -0.262570 -2.403574
v 3.659414 -0.372395 -0.975735
v 3.187120 -0.130530 -0.402685
v 2.554078 -0.483510 -0.111808
v 2.236981 -1.165534 -0.322140
v 2.474611 -1.663024 -0.875297
v 3.088026 -1.601360 -1.354740
v 3.615313 -1.026976 -1.399439
v 4.245779 -1.115091 0.090289
v 3.722955 -0.798347 0.576370
v 3.013360 -1.062578 0.767687
v 2.651333 -1.708814 0.520176
v 2.909488 -2.250425 0.020216
v 3.593429 -2.279568 -0.355712
v 4.188134 -1.774297 -0.324527
v 4.622760 -2.058642 1.079064
v 4.107462 -1.741492 1.572856
v 3.354566 -1.922877 1.673821
v 2.931019 -2.466210 1.305930
v 3.155760 -2.962350 0.746213
v 3.859554 -3.037694 0.416148
v 4.512431 -2.635506 0.564281
v 4.759158 -3.260566 1.847374
v 4.253133 -2.985688 2.374942
v 3.475233 -3.054303 2.385403
v 3.011231 -3.414741 1.870880
v 3.210532 -3.795585 1.218819
v 3.923056 -3.910053 0.920236
v 4.612260 -3.671946 1.199969
v 4.585845 -4.638369 2.289003
v 4.079299 -4.403095 2.834900
v 3.306382 -4.309172 2.773863
v 2.849118 -4.427326 2.151853
v 3.051835 -4.668583 1.437257
v 3.761883 -4.851273 1.168180
v 4.444582 -4.837827 1.547243
v 4.085269 -6.012708 2.355048
v 3.576241 -5.800182 2.907922
v 2.851868 -5.521284 2.821637
v 2.457616 -5.386030 2.161169
v 2.690367 -5.496269 1.423862
v 3.374853 -5.768989 1.164924
v 3.995643 -5.998826 1.579341
v 3.314659 -7.210869 2.073794
v 2.805627 -7.010227 2.631087
v 2.167579 -6.564005 2.570037
v 1.880977 -6.208219 1.936616
v 2.161639 -6.210782 1.207803
v 2.798221 -6.569764 0.932409
v 3.311363 -7.014845 1.317811
v 2.369724 -8.128843 1.524487
v 1.863121 -7.936069 2.086748
v 1.330938 -7.364469 2.087638
v 1.173920 -6.844469 1.526486
v 1.510305 -6.767639 0.825851
v 2.086787 -7.191835 0.513326
v 2.469265 -7.797628 0.824248
v 1.339747 -8.735823 0.798990
v 0.837767 -8.549861 1.367656
v 0.414174 -7.898861 1.449600
v 0.387942 -7.273040 0.983117
v 0.778824 -7.143654 0.319478
v 1.292478 -7.608132 -0.041583
v 1.542113 -8.316714 0.171820
v 0.281934 -9.042828 -0.023767
v -0.210918 -8.863603 0.554957
v -0.530075 -8.171624 0.725985
v -0.435206 -7.487966 0.360530
v 0.002252 -7.327436 -0.266213
v 0.452884 -7.810918 -0.682295
v 0.577354 -8.574339 -0.574396
v -0.778852 -9.063935 -0.882974
v -1.253808 -8.894020 -0.286743
v -1.469172 -8.192108 -0.020502
v -1.262771 -7.486753 -0.284736
v -0.790029 -7.309103 -0.880473
v -0.406930 -7.792930 -1.359109
v -0.401956 -8.573904 -1.360222
v -1.832009 -8.793020 -1.723038
v -2.276089 -8.641591 -1.098691
v -2.380005 -7.961890 -0.728349
v -2.065507 -7.265744 -0.890886
v -1.569417 -7.077366 -1.463909
v -1.265302 -7.538609 -2.015920
v -1.382166 -8.302147 -2.131243
v -2.856231 -8.207406 -2.473259
v -3.255218 -8.094343 -1.811464
v -3.234788 -7.480201 -1.329427
v -2.810325 -6.827443 -1.390132
v -2.301459 -6.627609 -1.947867
v -2.091376 -7.031177 -2.582645
v -2.338272 -7.734253 -2.816467
v -3.801778 -7.293326 -3.037688
v -4.146145 -7.249908 -2.338065
v -3.992148 -6.760731 -1.749051
v -3.455750 -6.194155 -1.714186
v -2.940869 -5.976824 -2.259724
v -2.835221 -6.272393 -2.974864
v -3.218362 -6.858291 -3.321090
v -4.585860 -6.082441 -3.303040
v -4.877799 -6.145325 -2.581400
v -4.596667 -5.850664 -1.915003
v -3.954162 -5.420342 -1.805658
v -3.434103 -5.178401 -2.335705
v -3.428105 -5.307027 -3.106008
v -3.940686 -5.709363 -3.536512
v -5.106551 -4.680488 -3.166848
v -5.364635 -4.879434 -2.457088
v -4.988174 -4.841837 -1.773852
v -4.260652 -4.596009 -1.631632
v -3.729907 -4.327063 -2.137522
v -3.795601 -4.237521 -2.910577
v -4.408266 -4.394810 -3.368670
v -5.273560 -3.272492 -2.577036
v -5.531912 -3.615848 -1.924879
v -5.120018 -3.866177 -1.310368
v -4.348041 -3.834976 -1.196240
v -3.797297 -3.545741 -1.668437
v -3.882506 -3.216270 -2.371385
v -4.539505 -3.094664 -2.775749
v -5.047223 -2.091442 -1.569263
v -5.346955 -2.555680 -1.017366
v -4.977555 -3.070236 -0.560504
v -4.217188 -3.247639 -0.542705
v -3.638426 -2.954301 -0.977370
v -3.677089 -2.411112 -1.537189
v -4.304062 -2.027104 -1.800606
v -4.458908 -1.346544 -0.285420
v -4.831914 -1.877791 0.148850
v -4.577526 -2.576118 0.388793
v -3.887303 -2.915671 0.253727
v -3.280998 -2.640759 -0.154640
v -3.215170 -1.958397 -0.528800
v -3.739389 -1.382417 -0.587002
v -3.552306 -1.149966 1.032979
v -4.000346 -1.684003 1.385132
v -3.914623 -2.460184 1.397042
v -3.359688 -2.894028 1.059740
v -2.753418 -2.658843 0.627223
v -2.552347 -1.931728 0.425183
v -2.907886 -1.260214 0.605762
v -2.360569 -1.485766 2.051695
v -2.827033 -2.001605 2.407036
v -2.937805 -2.755778 2.237037
v -2.609471 -3.180377 1.669711
v -2.089273 -2.955670 1.132265
v -1.768931 -2.250867 1.029408
v -1.889669 -1.596698 1.438592
v -1.017479 -2.163298 2.448972
v -1.401971 -2.714284 2.847127
v -1.691724 -3.390929 2.586088
v -1.668548 -3.683705 1.862423
v -1.349896 -3.372147 1.221066
v -0.975718 -2.690863 1.144973
v -0.827779 -2.152875 1.691442
v 0.251459 -2.884708 2.127721
v 0.011496 -3.523221 2.508070
v -0.410792 -4.121632 2.236919
v -0.697414 -4.229326 1.518451
v -0.632537 -3.765207 0.893686
v -0.265015 -3.078765 0.833086
v 0.128400 -2.686906 1.382283
v 1.277912 -3.420590 1.277949
v 1.169292 -4.137700 1.567605
v 0.674451 -4.691064 1.324981
v 0.166014 -4.663988 0.732777
v 0.026845 -4.076860 0.236936
v 0.361741 -3.371800 0.210835
v 0.918518 -3.079732 0.674129
v 2.098803 -3.707095 0.293134
v 2.077598 -4.461741 0.493151
v 1.587441 -5.017359 0.246207
v 0.997431 -4.955557 -0.261745
v 0.751857 -4.322874 -0.648206
v 1.035641 -3.595733 -0.622164
v 1.635089 -3.321685 -0.203228
v 2.885301 -3.783548 -0.505616
v 2.934093 -4.549960 -0.363564
v 2.530688 -5.132662 -0.691693
v 1.978858 -5.092868 -1.242916
v 1.694142 -4.460544 -1.602150
v 1.890938 -3.711842 -1.498885
v 2.421053 -3.410551 -1.010882
v 3.701299 -3.651567 -1.039177
v 3.846306 -4.413422 -0.947005
v 3.614368 -5.010754 -1.393487
v 3.180140 -4.993760 -2.042412
v 2.870603 -4.375236 -2.405126
v 2.918846 -3.620944 -2.208499
v 3.288541 -3.298880 -1.600594
v 4.508024 -3.303475 -1.335398
v 4.788296 -4.030501 -1.282224
v 4.783447 -4.594932 -1.821984
v 4.497129 -4.571740 -2.548228
v 4.144944 -3.978389 -2.914079
v 3.992096 -3.261685 -2.644045
v 4.153682 -2.961320 -1.941466
v 5.245855 -2.762362 -1.422154
v 5.670440 -3.416410 -1.378616
v 5.895329 -3.890381 -1.957169
v 5.751176 -3.827365 -2.722149
v 5.346531 -3.274815 -3.097512
v 4.986100 -2.648812 -2.800601
v 4.941295 -2.420749 -2.054997
v 5.861938 -2.069005 -1.325952
v 6.409280 -2.622169 -1.259823
v 6.826251 -2.964580 -1.824478
v 6.798866 -2.838395 -2.594721
v 6.347744 -2.338635 -2.990543
v 5.812590 -1.841628 -2.713881
v 5.596387 -1.721631 -1.973069
v 6.319703 -1.269464 -1.077951
v 6.954685 -1.710037 -0.965518
v 7.510092 -1.903834 -1.479242
v 7.567693 -1.704922 -2.232277
v 7.084112 -1.263087 -2.657574
v 6.423496 -0.911038 -2.434875
v 6.083302 -0.913877 -1.731877
v 6.600151 -0.407421 -0.712704
v 7.287385 -0.736151 -0.540680
v 7.929152 -0.782961 -0.983274
v 8.042190 -0.512601 -1.707204
v 7.541377 -0.128658 -2.167336
v 6.803837 0.079751 -2.017181
v 6.384952 -0.044310 -1.369808
v 6.696011 0.479756 -0.265670
v 7.405820 0.257005 -0.027971
v 8.091329 0.346410 -0.391330
v 8.236337 0.680647 -1.082131
v 7.731650 1.008028 -1.580185
v 6.957307 1.082029 -1.510449
v 6.496404 0.846926 -0.925434
v 6.604764 1.359619 0.227871
v 7.312678 1.237784 0.534401
v 8.008830 1.451725 0.252358
v 8.169004 1.840341 -0.405874
v 7.672585 2.110996 -0.944632
v 6.893387 2.059881 -0.958221
v 6.418162 1.725487 -0.436408
v 6.324040 2.202267 0.730698
v 7.006702 2.180815 1.109457
v 7.685425 2.511061 0.908912
v 7.849117 2.944324 0.280075
v 7.374514 3.154347 -0.303525
v 6.619003 2.982979 -0.402426
v 6.151498 2.559263 0.057846
v 5.852001 2.978362 1.200719
v 6.481559 3.061303 1.655387
v 7.114462 3.502745 1.534931
v 7.274121 3.970273 0.930057
v 6.840308 4.111830 0.296247
v 6.139695 3.820820 0.110773
v 5.699857 3.316379 0.513301
v 5.192632 3.655165 1.588288
v 5.731981 3.847766 2.119281
v 6.286870 4.395417 2.073213
v 6.439456 4.885727 1.484774
v 6.074839 4.949482 0.797071
v 5.467583 4.538672 0.527957
v 5.074963 3.962647 0.880082
v 4.364508 4.197082 1.836305
v 4.765588 4.500407 2.433863
v 5.207136 5.144465 2.446984
v 5.356657 5.644266 1.865789
v 5.101559 5.623451 1.127928
v 4.633936 5.097693 0.789026
v 4.305918 4.462900 1.104284
v 3.410141 4.570831 1.886260
v 3.620224 4.974015 2.521282
v 3.918042 5.694726 2.564036
v 4.079332 6.190252 1.982327
v 3.982640 6.087453 1.214193
v 3.700776 5.463738 0.838056
v 3.445990 4.788778 1.137153
v 2.397974 4.755781 1.688280
v 2.377185 5.230869 2.307801
v 2.521403 5.997820 2.338348
v 2.722029 6.479105 1.756918
v 2.827988 6.312307 1.001341
v 2.759489 5.623027 0.640580
v 2.568115 4.930308 0.946297
v 1.403450 4.762854 1.211496
v 1.154098 5.268489 1.751961
v 1.173370 6.049041 1.734247
v 1.446754 6.516738 1.171693
v 1.768385 6.319394 0.487913
v 1.896070 5.605614 0.197807
v 1.733658 4.912888 0.519832
v 0.463863 4.655867 0.457643
v 0.055591 5.157109 0.895841
v 0.015217 5.934795 0.836514
v 0.373144 6.403313 0.324336
v 0.859845 6.209859 -0.255011
v 1.108825 5.500107 -0.465269
v 0.932596 4.808516 -0.148108
v -0.456639 4.537828 -0.455554
v -0.912614 5.028076 -0.053446
v -0.957573 5.805928 -0.107026
v -0.557661 6.285647 -0.575947
v -0.014020 6.105993 -1.107103
v 0.263977 5.402251 -1.300521
v 0.066993 4.704352 -1.010555
v -1.423798 4.430008 -1.239133
v -1.835468 4.920133 -0.791639
v -1.883173 5.698287 -0.837975
v -1.530988 6.178505 -1.343251
v -1.044117 5.999172 -1.926983
v -0.789183 5.295331 -2.149609
v -0.958157 4.596987 -1.843487
v -2.404980 4.231463 -1.679136
v -2.733048 4.729576 -1.174952
v -2.846762 5.498187 -1.254022
v -2.660492 5.958518 -1.856804
v -2.314505 5.763928 -2.529392
v -2.069335 5.060949 -2.765312
v -2.109600 4.378938 -2.386913
v -3.325755 3.884114 -1.792924
v -3.580101 4.392160 -1.257066
v -3.825568 5.126391 -1.360007
v -3.877313 5.533917 -2.024229
v -3.696372 5.307862 -2.749561
v -3.418997 4.618450 -2.989812
v -3.254057 3.984823 -2.564069
v -4.160616 3.401560 -1.656524
v -4.361052 3.920383 -1.108259
v -4.742539 4.596464 -1.193865
v -5.017809 4.920701 -1.848879
v -4.979579 4.648935 -2.580062
v -4.656636 3.985813 -2.836818
v -4.292163 3.430679 -2.425805
v -4.891027 2.811131 -1.329748
v -5.056475 3.338508 -0.777981
v -5.544186 3.947256 -0.816829
v -5.986904 4.178977 -1.417039
v -6.051253 3.859180 -2.126642
v -5.688777 3.228678 -2.411290
v -5.172428 2.762252 -2.056640
v -5.502302 2.135340 -0.871228
v -5.650172 2.663151 -0.314904
v -6.212922 3.204293 -0.294302
v -6.766790 3.351274 -0.824937
v -6.894702 2.993416 -1.507229
v -6.500338 2.400192 -1.827399
v -5.880661 2.018313 -1.544352
v -5.985847 1.386943 -0.340161
v -6.130159 1.900927 0.229875
v -6.746256 2.373259 0.315158
v -7.370206 2.448262 -0.148531
v -7.532161 2.069458 -0.812025
v -7.110166 1.522094 -1.175700
v -6.421992 1.218346 -0.965701

g knot00
f 1 2 9 8
f 2 3 10 9
f 3 4 11 10
f 4 5 12 11
f 5 6 13 12
f 6 7 14 13
f 7 1 8 14
f 8 9 16 15
f 9 10 17 16
f 10 11 18 17
f 11 12 19 18
f 12 13 20 19
f 13 14 21 20
f 14 8 15 21
f 15 16 23 22
f 16 17 24 23
f 17 18 25 24
f 18 19 26 25
f 19 20 27 26
f 20 21 28 27
f 21 15 22 28
f 22 23 30 29
f 23 24 31 30
f 24 25 32 31
f 25 26 33 32
f 26 27 34 33
f 27 28 35 34
f 28 22 29 35
f 29 30 37 36
f 30 31 38 37
f 31 32 39 38
f 32 33 40 39
f 33 34 41 40
f 34 35 42 41
f 35 29 36 42
f 36 37 44 43
f 37 38 45 44
f 38 39 46 45
f 39 40 47 46
f 40 41 48 47
f 41 42 49 48
f 42 36 43 49
f 43 44 51 50
f 44 45 52 51
f 45 46 53 52
f 46 47 54 53
f 47 48 55 54
f 48 49 56 55
f 49 43 50 56
f 50 51 58 57
f 51 52 59 58
f 52 53 60 59
f 53 54 61 60
f 54 55 62 61
f 55 56 63 62
f 56 50 57 63
f 57 58 65 64
f 58 59 66 65
f 59 60 67 66
f 60 61 68 67
f 61 62 69 68
f 62 63 70 69
f 63 57 64 70
f 64 65 72 71
f 65 66 73 72
f 66 67 74 73
f 67 68 75 74
f 68 69 76 75
f 69 70 77 76
f 70 64 71 77
f 71 72 79 78
f 72 73 80 79
f 73 74 81 80
f 74 75 82 81
f 75 76 83 82
f 76 77 84 83
f 77 71 78 84
f 78 79 86 85
f 79 80 87 86
f 80 81 88 87
f 81 82 89 88
f 82 83 90 89
f 83 84 91 90
f 84 78 85 91
f 85 86 93 92
f 86 87 94 93
f 87 88 95 94
f 88 89 96 95
f 89 90 97 96
f 90 91 98 97
f 91 85 92 98
f 92 93 100 99
f 93 94 101 100
f 94 95 102 101
f 95 96 103 102
f 96 97 104 103
f 97 98 105 104
f 98 92 99 105
f 99 100 107 106
f 100 101 108 107
f 101 102 109 108
f 102 103 110 109
f 103 104 111 110
f 104 105 112 111
f 105 99 106 112
f 106 107 114 113
f 107 108 115 114
f 108 109 116 115
f 109 110 117 116
f 110 111 118 117
f 111 112 119 118
f 112 106 113 119
f 113 114 121 120
f 114 115 122 121
f 115 116 123 122
f 116 117 124 123
f 117 118 125 124
f 118 119 126 125
f 119 113 120 126
f 120 121 128 127
f 121 122 129 128
f 122 123 130 129
f 123 124 131 130
f 124 125 132 131
f 125 126 133 132
f 126 120 127 133
f 127 128 135 134
f 128 129 136 135
f 129 130 137 136
f 130 131 138 137
f 131 132 139 138
f 132 133 140 139
f 133 127 134 140
f 134 135 142 141
f 135 136 143 142
f 136 137 144 143
f 137 138 145 144
f 138 139 146 145
f 139 140 147 146
f 140 134 141 147
f 141 142 149 148
f 142 143 150 149
f 143 144 151 150
f 144 145 152 151
f 145 146 153 152
f 146 147 154 153
f 147 141 148 154
f 148 149 156 155
f 149 150 157 156
f 150 151 158 157
f 151 152 159 158
f 152 153 160 159
f 153 154 161 160
f 154 148 155 161
f 155 156 163 162
f 156 157 164 163
f 157 158 165 164
f 158 159 166 165
f 159 160 167 166
f 160 161 168 167
f 161 155 162 168
f 162 163 170 169
f 163 164 171 170
f 164 165 172 171
f 165 166 173 172
f 166 167 174 173
f 167 168 175 174
f 168 162 169 175
f 169 170 177 176
f 170 171 178 177
f 171 172 179 178
f 172 173 180 179
f 173 174 181 180
f 174 175 182 181
f 175 169 176 182
f 176 177 184 183
f 177 178 185 184
f 178 179 186 185
f 179 180 187 186
f 180 181 188 187
f 181 182 189 188
f 182 176 183 189
f 183 184 191 190
f 184 185 192 191
f 185 186 193 192
f 186 187 194 193
f 187 188 195 194
f 188 189 196 195
f 189 183 190 196
f 190 191 198 197
f 191 192 199 198
f 192 193 200 199
f 193 194 201 200
f 194 195 202 201
f 195 196 203 202
f 196 190 197 203
f 197 198 205 204
f 198 199 206 205
f 199 200 207 206
f 200 201 208 207
f 201 202 209 208
f 202 203 210 209
f 203 197 204 210
f 204 205 212 211
f 205 206 213 212
f 206 207 214 213
f 207 208 215 214
f 208 209 216 215
f 209 210 217 216
f 210 204 211 217
f 211 212 219 218
f 212 213 220 219
f 213 214 221 220
f 214 215 222 221
f 215 216 223 222
f 216 217 224 223
f 217 211 218 224
f 218 219 226 225
f 219 220 227 226
f 220 221 228 227
f 221 222 229 228
f 222 223 230 229
f 223 224 231 230
f 224 218 225 231
f 225 226 233 232
f 226 227 234 233
f 227 228 235 234
f 228 229 236 235
f 229 230 237 236
f 230 231 238 237
f 231 225 232 238
f 232 233 240 239
f 233 234 241 240
f 234 235 242 241
f 235 236 243 242
f 236 237 244 243
f 237 238 245 244
f 238 232 239 245
f 239 240 247 246
f 240 241 248 247
f 241 242 249 248
f 242 243 250 249
f 243 244 251 250
f 244 245 252 251
f 245 239 246 252
f 246 247 254 253
f 247 248 255 254
f 248 249 256 255
f 249 250 257 256
f 250 251 258 257
f 251 252 259 258
f 252 246 253 259
f 253 254 261 260
f 254 255 262 261
f 255 256 263 262
f 256 257 264 263
f 257 258 265 264
f 258 259 266 265
f 259 253 260 266
f 260 261 268 267
f 261 262 269 268
f 262 263 270 269
f 263 264 271 270
f 264 265 272 271
f 265 266 273 272
f 266 260 267 273
f 267 268 275 274
f 268 269 276 275
f 269 270 277 276
f 270 271 278 277
f 271 272 279 278
f 272 273 280 279
f 273 267 274 280
f 274 275 282 281
f 275 276 283 282
f 276 277 284 283
f 277 278 285 284
f 278 279 286 285
f 279 280 287 286
f 280 274 281 287
f 281 282 289 288
f 282 283 290 289
f 283 284 291 290
f 284 285 292 291
f 285 286 293 292
f 286 287 294 293
f 287 281 288 294
f 288 289 296 295
f 289 290 297 296
f 290 291 298 297
f 291 292 299 298
f 292 293 300 299
f 293 294 301 300
f 294 288 295 301
f 295 296 303 302
f 296 297 304 303
f 297 298 305 304
f 298 299 306 305
f 299 300 307 306
f 300 301 308 307
f 301 295 302 308
f 302 303 310 309
f 303 304 311 310
f 304 305 312 311
f 305 306 313 312
f 306 307 314 313
f 307 308 315 314
f 308 302 309 315
f 309 310 317 316
f 310 311 318 317
f 311 312 319 318
f 312 313 320 319
f 313 314 321 320
f 314 315 322 321
f 315 309 316 322
f 316 317 324 323
f 317 318 325 324
f 318 319 326 325
f 319 320 327 326
f 320 321 328 327
f 321 322 329 328
f 322 316 323 329
f 323 324 331 330
f 324 325 332 331
f 325 326 333 332
f 326 327 334 333
f 327 328 335 334
f 328 329 336 335
f 329 323 330 336
f 330 331 338 337
f 331 332 339 338
f 332 333 340 339
f 333 334 341 340
f 334 335 342 341
f 335 336 343 342
f 336 330 337 343
f 337 338 345 344
f 338 339 346 345
f 339 340 347 346
f 340 341 348 347
f 341 342 349 348
f 342 343 350 349
f 343 337 344 350
f 344 345 352 351
f 345 346 353 352
f 346 347 354 353
f 347 348 355 354
f 348 349 356 355
f 349 350 357 356
f 350 344 351 357
f 351 352 359 358
f 352 353 360 359
f 353 354 361 360
f 354 355 362 361
f 355 356 363 362
f 356 357 364 363
f 357 351 358 364
f 358 359 366 365
f 359 360 367 366
f 360 361 368 367
f 361 362 369 368
f 362 363 370 369
f 363 364 371 370
f 364 358 365 371
f 365 366 373 372
f 366 367 374 373
f 367 368 375 374
f 368 369 376 375
f 369 370 377 376
f 370 371 378 377
f 371 365 372 378
f 372 373 380 379
f 373 374 381 380
f 374 375 382 381
f 375 376 383 382
f 376 377 384 383
f 377 378 385 384
f 378 372 379 385
f 379 380 387 386
f 380 381 388 387
f 381 382 389 388
f 382 383 390 389
f 383 384 391 390
f 384 385 392 391
f 385 379 386 392
f 386 387 394 393
f 387 388 395 394
f 388 389 396 395
f 389 390 397 396
f 390 391 398 397
f 391 392 399 398
f 392 386 393 399
f 393 394 401 400
f 394 395 402 401
f 395 396 403 402
f 396 397 404 403
f 397 398 405 404
f 398 399 406 405
f 399 393 400 406
f 400 401 408 407
f 401 402 409 408
f 402 403 410 409
f 403 404 411 410
f 404 405 412 411
f 405 406 413 412
f 406 400 407 413
f 407 408 415 414
f 408 409 416 415
f 409 410 417 416
f 410 411 418 417
f 411 412 419 418
f 412 413 420 419
f 413 407 414 420
f 414 415 422 421
f 415 416 423 422
f 416 417 424 423
f 417 418 425 424
f 418 419 426 425
f 419 420 427 426
f 420 414 421 427
f 421 422 429 428
f 422 423 430 429
f 423 424 431 430
f 424 425 432 431
f 425 426 433 432
f 426 427 434 433
f 427 421 428 434
f 428 429 436 435
f 429 430 437 436
f 430 431 438 437
f 431 432 439 438
f 432 433 440 439
f 433 434 441 440
f 434 428 435 441
f 435 436 443 442
f 436 437 444 443
f 437 438 445 444
f 438 439 446 445
f 439 440 447 446
f 440 441 448 447
f 441 435 442 448
f 442 443 450 449
f 443 444 451 450
f 444 445 452 451
f 445 446 453 452
f 446 447 454 453
f 447 448 455 454
f 448 442 449 455
f 449 450 457 456
f 450 451 458 457
f 451 452 459 458
f 452 453 460 459
f 453 454 461 460
f 454 455 462 461
f 455 449 456 462
f 456 457 464 463
f 457 458 465 464
f 458 459 466 465
f 459 460 467 466
f 460 461 468 467
f 461 462 469 468
f 462 456 463 469
f 463 464 471 470
f 464 465 472 471
f 465 466 473 472
f 466 467 474 473
f 467 468 475 474
f 468 469 476 475
f 469 463 470 476
f 470 471 478 477
f 471 472 479 478
f 472 473 480 479
f 473 474 481 480
f 474 475 482 481
f 475 476 483 482
f 476 470 477 483
f 477 478 485 484
f 478 479 486 485
f 479 480 487 486
f 480 481 488 487
f 481 482 489 488
f 482 483 490 489
f 483 477 484 490
f 484 485 492 491
f 485 486 493 492
f 486 487 494 493
f 487 488 495 494
f 488 489 496 495
f 489 490 497 496
f 490 484 491 497
f 491 492 499 498
f 492 493 500 499
f 493 494 501 500
f 494 495 502 501
f 495 496 503 502
f 496 497 504 503
f 497 491 498 504
f 498 499 506 505
f 499 500 507 506
f 500 501 508 507
f 501 502 509 508
f 502 503 510 509
f 503 504 511 510
f 504 498 505 511
f 505 506 513 512
f 506 507 514 513
f 507 508 515 514
f 508 509 516 515
f 509 510 517 516
f 510 511 518 517
f 511 505 512 518
f 512 513 520 519
f 513 514 521 520
f 514 515 522 521
f 515 516 523 522
f 516 517 524 523
f 517 518 525 524
f 518 512 519 525
f 519 520 527 526
f 520 521 528 527
f 521 522 529 528
f 522 523 530 529
f 523 524 531 530
f 524 525 532 531
f 525 519 526 532
f 526 527 534 533
f 527 528 535 534
f 528 529 536 535
f 529 530 537 536
f 530 531 538 537
f 531 532 539 538
f 532 526 533 539
f 533 534 541 540
f 534 535 542 541
f 535 536 543 542
f 536 537 544 543
f 537 538 545 544
f 538 539 546 545
f 539 533 540 546
f 540 541 548 547
f 541 542 549 548
f 542 543 550 549
f 543 544 551 550
f 544 545 552 551
f 545 546 553 552
f 546 540 547 553
f 547 548 555 554
f 548 549 556 555
f 549 550 557 556
f 550 551 558 557
f 551 552 559 558
f 552 553 560 559
f 553 547 554 560
f 554 555 562 561
f 555 556 563 562
f 556 557 564 563
f 557 558 565 564
f 558 559 566 565
f 559 560 567 566
f 560 554 561 567
f 561 562 569 568
f 562 563 570 569
f 563 564 571 570
f 564 565 572 571
f 565 566 573 572
f 566 567 574 573
f 567 561 568 574
f 568 569 576 575
f 569 570 577 576
f 570 571 578 577
f 571 572 579 578
f 572 573 580 579
f 573 574 581 580
f 574 568 575 581
f 575 576 583 582
f 576 577 584 583
f 577 578 585 584
f 578 579 586 585
f 579 580 587 586
f 580 581 588 587
f 581 575 582 588
f 582 583 590 589
f 583 584 591 590
f 584 585 592 591
f 585 586 593 592
f 586 587 594 593
f 587 588 595 594
f 588 582 589 595
f 589 590 2 1
f 590 591 3 2
f 591 592 4 3
f 592 593 5 4
f 593 594 6 5
f 594 595 7 6
f 595 589 1 7
